<svg width="154" height="49" fill="none" xmlns="http://www.w3.org/2000/svg"><g style="mix-blend-mode:luminosity"><path d="M2.513 45.691h1.038l1.832-6.615h.065l1.833 6.615h1.037l2.27-8.302H9.567l-1.735 6.762H7.75l-1.768-6.762H4.848l-1.767 6.762H3l-1.735-6.762H.243l2.27 8.302zm9.198 0h.957v-6.226h-.957v6.226zm.487-7.264c.373 0 .68-.292.68-.648 0-.357-.307-.65-.68-.65-.373 0-.681.293-.681.65 0 .356.308.648.68.648zm3.179 3.519c0-1.087.673-1.703 1.589-1.703.888 0 1.427.58 1.427 1.557v3.891h.957v-3.956c0-1.59-.848-2.351-2.108-2.351-.94 0-1.525.421-1.817 1.054h-.08v-.973h-.925v6.226h.957v-3.745zm6.677 0c0-1.087.673-1.703 1.59-1.703.887 0 1.426.58 1.426 1.557v3.891h.957v-3.956c0-1.59-.847-2.351-2.108-2.351-.94 0-1.524.421-1.816 1.054h-.081v-.973h-.924v6.226h.956v-3.745zm5.721 3.745h.957v-6.226h-.957v6.226zm.487-7.264c.373 0 .68-.292.68-.648 0-.357-.307-.65-.68-.65-.373 0-.681.293-.681.65 0 .356.308.648.68.648zm3.179 3.519c0-1.087.673-1.703 1.589-1.703.888 0 1.427.58 1.427 1.557v3.891h.957v-3.956c0-1.59-.848-2.351-2.108-2.351-.94 0-1.525.421-1.816 1.054h-.081v-.973h-.925v6.226h.957v-3.745zm8.234 6.21c1.492 0 2.692-.68 2.692-2.286v-6.405h-.924v.989h-.098c-.21-.324-.6-1.07-1.816-1.07-1.573 0-2.66 1.248-2.66 3.162 0 1.946 1.136 3.048 2.644 3.048 1.216 0 1.605-.713 1.816-1.054h.081v1.265c0 1.038-.73 1.508-1.735 1.508-1.13 0-1.528-.596-1.784-.94l-.762.535c.39.652 1.156 1.248 2.546 1.248zm-.032-3.421c-1.2 0-1.816-.908-1.816-2.206 0-1.264.6-2.286 1.816-2.286 1.167 0 1.783.94 1.783 2.286 0 1.379-.632 2.206-1.783 2.206zm14.82-3.195c0-2.627-1.54-4.264-3.664-4.264-2.125 0-3.665 1.637-3.665 4.264 0 2.627 1.54 4.265 3.665 4.265 2.124 0 3.664-1.638 3.664-4.265zm-.973 0c0 2.157-1.183 3.324-2.691 3.324-1.508 0-2.692-1.167-2.692-3.324 0-2.156 1.184-3.324 2.692-3.324 1.508 0 2.691 1.168 2.691 3.324zm7.625-2.075h-1.037l-1.72 4.962h-.064l-1.719-4.962h-1.038l2.303 6.226h.973l2.302-6.226zm3.65 6.356c1.266 0 2.19-.632 2.482-1.573l-.925-.26c-.243.65-.806.974-1.556.974-1.123 0-1.897-.726-1.942-2.06h4.52v-.405c0-2.319-1.378-3.113-2.675-3.113-1.687 0-2.806 1.33-2.806 3.243 0 1.913 1.103 3.194 2.903 3.194zm-1.941-3.745c.065-.97.75-1.833 1.844-1.833 1.038 0 1.703.779 1.703 1.832h-3.547zm5.975 3.615h.957v-3.94c0-.843.665-1.46 1.573-1.46.255 0 .519.05.584.066v-.973a9.2 9.2 0 00-.503-.016c-.746 0-1.395.421-1.622 1.037h-.064v-.94h-.925v6.226zm14.268-5.707c-.308-1.703-1.67-2.708-3.34-2.708-2.124 0-3.664 1.637-3.664 4.264 0 2.627 1.54 4.265 3.664 4.265 1.67 0 3.032-1.005 3.34-2.708h-1.005c-.243 1.151-1.232 1.767-2.335 1.767-1.508 0-2.692-1.167-2.692-3.324 0-2.156 1.184-3.324 2.692-3.324 1.103 0 2.092.617 2.335 1.768h1.005zm4.025 5.837c1.686 0 2.821-1.28 2.821-3.21 0-1.946-1.135-3.227-2.821-3.227-1.687 0-2.822 1.28-2.822 3.227 0 1.93 1.135 3.21 2.822 3.21zm0-.86c-1.281 0-1.865-1.102-1.865-2.35 0-1.249.584-2.368 1.865-2.368 1.28 0 1.865 1.119 1.865 2.368 0 1.248-.584 2.35-1.865 2.35zm9.15-5.496h-1.038l-1.718 4.962h-.065l-1.72-4.962h-1.037l2.303 6.226h.973l2.302-6.226zm1.263 6.226h.957v-6.226h-.957v6.226zm.486-7.264c.373 0 .681-.292.681-.648 0-.357-.308-.65-.68-.65-.374 0-.682.293-.682.65 0 .356.308.648.681.648zm4.574 7.394c1.2 0 1.605-.746 1.816-1.086h.114v.956h.924V37.39h-.957v3.065h-.081c-.211-.324-.584-1.07-1.8-1.07-1.573 0-2.66 1.248-2.66 3.21 0 1.979 1.087 3.227 2.644 3.227zm.13-.86c-1.2 0-1.816-1.053-1.816-2.383 0-1.313.6-2.335 1.816-2.335 1.167 0 1.783.94 1.783 2.335 0 1.41-.632 2.384-1.783 2.384zm8.176-3.275h-3.632v.892h3.632v-.892zm4.586-4.297h-1.005l-2.076 1.379v1.021l2.027-1.346h.049v7.248h1.005V37.39zm5.031-.113c-1.687-.02-2.773 1.248-2.773 2.773 0 1.605 1.184 2.756 2.61 2.756.86 0 1.59-.422 2.044-1.102h.064c0 2.043-.794 3.21-2.075 3.21-.876 0-1.411-.551-1.589-1.313h-.989c.194 1.313 1.183 2.205 2.578 2.205 1.865 0 3.016-1.654 3.016-4.605 0-3.049-1.524-3.908-2.886-3.924zm0 .892c1.037 0 1.799.892 1.799 1.864 0 .99-.81 1.881-1.832 1.881-1.021 0-1.767-.827-1.767-1.864 0-1.038.778-1.881 1.8-1.881zM19.103 21.808c-.222 2.357-1.092 4.198-2.61 5.523-1.517 1.315-3.535 1.973-6.054 1.973-1.76 0-3.313-.415-4.658-1.245-1.335-.84-2.367-2.028-3.095-3.566-.729-1.537-1.108-3.322-1.138-5.356v-2.063c0-2.084.369-3.92 1.107-5.508.739-1.588 1.796-2.812 3.172-3.672 1.385-.86 2.984-1.29 4.794-1.29 2.438 0 4.4.663 5.888 1.988 1.487 1.325 2.352 3.196 2.594 5.614H15.28c-.182-1.588-.648-2.731-1.396-3.43-.739-.707-1.826-1.061-3.263-1.061-1.669 0-2.953.612-3.854 1.836-.89 1.213-1.345 2.999-1.365 5.356v1.957c0 2.387.425 4.208 1.274 5.463.86 1.254 2.114 1.881 3.763 1.881 1.508 0 2.64-.339 3.4-1.016.758-.678 1.238-1.806 1.44-3.384h3.824zm30.972-.713h-7.966V18.12h7.966v2.974zm20.105 2.443l3.399-16.63h3.809L72.288 29h-3.672l-4.203-16.13L60.12 29h-3.687L51.335 6.908h3.808l3.43 16.6 4.218-16.6h3.216l4.173 16.63zM83.624 29h-3.823V6.908h3.823V29zm21.623 0h-3.839l-9.847-15.674V29h-3.84V6.908h3.84l9.878 15.734V6.908h3.808V29z" fill="#fff"/><path d="M40.128 20.814c0 4.155-3.669 7.567-8.251 7.567-4.583 0-8.252-3.412-8.252-7.567 0-4.154 3.669-7.567 8.252-7.567 4.582 0 8.251 3.413 8.251 7.567z" fill="#FCBF02" stroke="#fff" stroke-width=".634"/><path fill="#fff" d="M30.677 16.084h2.399v9.461h-2.399z"/><path fill="#fff" d="M37.018 19.71v2.208H26.735v-2.207z"/></g></svg>