<svg xmlns="http://www.w3.org/2000/svg" width="170" height="170" viewBox="0 0 170 170">
  <g id="Group_421" data-name="Group 421" transform="translate(-548 -237)">
    <g id="Group_117" data-name="Group 117" transform="translate(2318.007 2258)" opacity="0.41">
      <circle id="Ellipse_11" data-name="Ellipse 11" cx="85" cy="85" r="85" transform="translate(-1770.007 -2021)" fill="#72bec7" opacity="0.2"/>
    </g>
    <g id="Group_118" data-name="Group 118" transform="translate(442.157 -195.135)">
      <path id="Path_201" data-name="Path 201" d="M156.863,500.468a1.933,1.933,0,0,1,1.745-1.04,1.911,1.911,0,0,1,1.693,1.122l6.45,14.237h17.054a1.909,1.909,0,0,1,1.589.853l1.651,2.483,1.563-2.452a1.909,1.909,0,0,1,1.61-.884h3.288l7.5-21.174a1.909,1.909,0,0,1,3.674.265l6.136,30.749,6.758-25.419a1.909,1.909,0,0,1,3.666-.088l6.341,19.947,3.865-6.166a1.91,1.91,0,0,1,1.618-.9h14.19a43.971,43.971,0,0,0-4.6-27.307c-5.747-10.733-15.359-17.463-25.088-17.563h-.23c-6.956,0-16.874,3.225-26.018,17.878-9.247-14.816-19.286-17.938-26.249-17.877-9.728.1-19.341,6.829-25.087,17.562a43.706,43.706,0,0,0-4.049,30.09h13.6Z" transform="translate(0 0)" fill="#a2dff2"/>
      <path id="Path_202" data-name="Path 202" d="M230.442,553.014a1.908,1.908,0,0,1-3.438-.438L221.4,534.942l-7.186,27.031a1.911,1.911,0,0,1-1.845,1.421h-.061a1.911,1.911,0,0,1-1.813-1.538l-6.386-32-5.631,15.908a1.911,1.911,0,0,1-1.8,1.274h-3.59l-2.575,4.041a1.907,1.907,0,0,1-3.2.031l-2.707-4.072H167.344a1.91,1.91,0,0,1-1.739-1.123l-5.324-11.754L154.217,546a1.909,1.909,0,0,1-1.7,1.04H138.86a41.335,41.335,0,0,0,4.436,9.107c9.15,14.125,25.178,26.669,49,38.35l.84.411.839-.411c23.823-11.682,39.851-24.226,49-38.35a41,41,0,0,0,5.28-11.89H235.934Z" transform="translate(-1.82 -27.458)" fill="#a2dff2"/>
    </g>
  </g>
</svg>
